<svg xmlns="http://www.w3.org/2000/svg" fill="none" stroke="currentColor" stroke-linecap="round" stroke-linejoin="round" class="rx-icons rxicons-bell-slash" viewBox="0 0 20.94 17.883"><path d="M17.781 16.406 3.22 1.75M10.387.718s-3.672.638-4.914 1.876c-.216.232.036-.042-.493.611m-.539 2.01c-.163.869-.16 1.386-.186 1.676-.053.582-.08 3.897-1.068 5.648-.554.983-2.47 2.234-2.47 2.234l7.087-.12 5.164.053.767-.005m2.767.073 3.72.038s-1.51-1.255-1.987-2.278c-.818-1.751-1.113-5.067-1.24-5.648-.125-.57-.452-3.181-1.528-4.254C14.225 1.394 10.553.756 10.553.756m-2.46 14.307c.044.051.54 2.065 2.196 2.102 1.614.035 2.162-2.053 2.244-2.14"/></svg>