<svg xmlns="http://www.w3.org/2000/svg" fill="none" stroke="currentColor" stroke-linecap="round" stroke-linejoin="round" class="rx-icons rxicons-bell" viewBox="0 0 20.94 17.883"><path d="M10.387.718s-3.672.638-4.914 1.876C4.397 3.666 4.308 6.31 4.255 6.89c-.053.582-.08 3.897-1.068 5.648-.554.983-2.47 2.234-2.47 2.234l7.087-.12 5.164.053 7.255.105s-1.511-1.254-1.988-2.277c-.818-1.751-1.113-5.067-1.24-5.648-.125-.57-.452-3.181-1.528-4.254C14.225 1.394 10.553.756 10.553.756M8.11 15.03c.044.051.523 2.098 2.179 2.135 1.614.035 2.178-1.99 2.26-2.077"/></svg>