<svg xmlns="http://www.w3.org/2000/svg" xml:space="preserve" width="1024" height="1024" viewBox="0 0 270.933 270.933"><text xml:space="preserve" x="110.489" y="247.957" style="font-style:normal;font-variant:normal;font-weight:700;font-stretch:normal;font-size:35.2778px;font-family:&quot;IBM Plex Sans&quot;;-inkscape-font-specification:&quot;IBM Plex Sans Bold&quot;;text-align:start;writing-mode:lr-tb;direction:ltr;text-anchor:start;display:inline;fill:#000;stroke:#000;stroke-width:2;stroke-opacity:1" transform="translate(-1.472 -115.561)"><tspan x="110.489" y="247.957" style="font-style:normal;font-variant:normal;font-weight:700;font-stretch:normal;font-size:35.2778px;font-family:Montserrat;-inkscape-font-specification:&quot;Montserrat Bold&quot;;fill:#000;stroke:#000;stroke-width:2;stroke-opacity:1">LYNQIS</tspan></text><path d="M70.402 208.022c-5.736 0-7.544.381-11.837 2.499-5.737 2.83-10.239 7.427-12.798 13.072-1.851 4.083-2.67 9.342-2.152 13.808.801 6.888 3.397 12.11 8.35 16.8 3.676 3.478 8.285 5.91 13.326 7.03 2.784.618 9.226.424 12.1-.365 11.192-3.073 18.864-12.055 20.04-23.462.321-3.105.007-6.991-.798-9.862-2.504-8.942-10.086-16.385-19.294-18.94-1.789-.495-2.8-.58-6.937-.58m.33 4.27c1.926.02 3.838.229 5.228.62 10.843 3.047 17.738 12.436 17.09 23.276-.36 6.042-2.75 11.02-7.276 15.151-2.19 1.999-4.166 3.188-7.119 4.283-1.533.569-3.06.637-4.477.404a8.5 8.5 0 0 1 .333-1.287c.634-1.944 1.87-3.628 3.67-4.997.895-.682 1.843-1.265 3.65-2.248 3.106-1.689 4.415-2.588 5.603-3.85 1.049-1.112 1.742-2.253 2.223-3.66.536-1.566.671-3.727.353-5.62l-.048-.288-.608.6c-1.31 1.298-2.914 2.267-5.843 3.531l-2.55 1.102c-5.073 2.196-7.15 3.81-8.54 6.633-.83 1.686-1.307 4.147-1.167 6.024.053.705.283 2.461.318 2.425.013-.013.07-.308.126-.658.63-3.885 2.965-6.933 7.392-9.65.808-.496 2.851-1.579 2.896-1.535.014.014-.187.186-.448.382-1.532 1.151-3.575 3.076-4.792 4.514-1.662 1.963-2.841 4.284-3.305 6.505a11 11 0 0 0-.222 1.868c-2.017-.54-3.732-1.647-4.784-2.7-1.366-1.365-1.92-3.04-1.68-5.07.291-2.463 1.288-3.995 5.008-7.698 2.324-2.313 3.628-3.837 4.053-4.736.764-1.616 1.007-4.728.544-6.96-.36-1.73-1.883-4.962-2.679-5.683-.514-.465-.506-.489.442-1.321 1.314-1.154 2.22-3.177 2.223-4.965l.003-1.423-.555.517c-.747.696-2.862 1.316-5.633 1.651-3.312.401-6.58 1.245-8.517 2.199-2.773 1.365-4.926 4.056-4.933 6.166 0 .234-.32.718-.71 1.076-1.003.925-1.7 2.592-1.707 4.085l-.006 1.28 1.095-.794c1.455-1.054 3.129-1.557 5.9-1.774 1.273-.1 2.808-.406 3.464-.69 1.603-.698 1.7-.666 1.488.496-.335 1.846-1.229 3.117-4.787 6.8-4.9 5.074-6.263 7.575-6.591 12.1l-.166 2.286-.297-.308c-4.356-4.38-6.448-9.502-6.454-15.805-.01-10.189 7.224-19.186 17.485-21.748 1.443-.36 3.382-.527 5.307-.506zm-7.337 11.333c.447-.013.604.378.148 1.03-.44.628-1.303.772-1.614.268-.11-.177.071-.526.417-.807.408-.33.78-.483 1.05-.491" style="display:inline;fill:#000;stroke-width:.268597" transform="translate(-1.472 -115.561)"/></svg>