<svg xmlns="http://www.w3.org/2000/svg" xml:space="preserve" width="761.167" height="753.878" viewBox="0 0 201.392 199.464"><path d="M100.3 0C78.943 0 72.213 1.421 56.23 9.304 34.87 19.839 18.11 36.958 8.582 57.974 1.69 73.174-1.362 92.755.571 109.379c2.981 25.644 12.645 45.085 31.089 62.545 13.684 12.954 30.843 22.008 49.61 26.177 10.367 2.302 34.351 1.58 45.049-1.358 41.667-11.442 70.232-44.883 74.613-87.353 1.193-11.557.021-26.027-2.973-36.716-9.323-33.291-37.553-61-71.833-70.51C119.466.316 115.698 0 100.3 0m1.23 15.897c7.169.077 14.287.853 19.46 2.306 40.373 11.348 66.04 46.305 63.632 86.66-1.343 22.495-10.245 41.03-27.093 56.41-8.15 7.44-15.509 11.868-26.503 15.947h-.001c-5.705 2.116-11.394 2.371-16.666 1.503.25-1.507.633-2.93 1.24-4.792 2.359-7.236 6.963-13.507 13.66-18.605 3.334-2.537 6.862-4.71 13.593-8.37 11.563-6.286 16.434-9.633 20.86-14.329 3.903-4.142 6.484-8.393 8.275-13.63 1.995-5.83 2.5-13.875 1.313-20.926l-.18-1.07-2.26 2.238c-4.88 4.83-10.85 8.436-21.753 13.143-1.886.814-6.157 2.66-9.493 4.104-18.89 8.173-26.626 14.18-31.799 24.691-3.09 6.278-4.864 15.44-4.343 22.428.195 2.627 1.053 9.164 1.185 9.03.045-.046.256-1.148.467-2.449 2.347-14.466 11.04-25.814 27.523-35.93 3.005-1.844 10.614-5.876 10.78-5.712.053.052-.697.69-1.666 1.42-5.704 4.287-13.312 11.454-17.844 16.806-6.186 7.308-10.577 15.95-12.303 24.218a40.7 40.7 0 0 0-.826 6.957c-7.509-2.009-13.894-6.133-17.812-10.051-5.084-5.084-7.15-11.323-6.256-18.88 1.086-9.17 4.796-14.871 18.647-28.657 8.652-8.611 13.508-14.286 15.09-17.634 2.844-6.017 3.749-17.6 2.024-25.909-1.338-6.446-7.01-18.478-9.973-21.16-1.914-1.733-1.885-1.82 1.646-4.92 4.89-4.294 8.263-11.828 8.275-18.484l.011-5.298-2.066 1.925c-2.78 2.59-10.655 4.898-20.97 6.148-12.33 1.493-24.498 4.634-31.71 8.184-10.323 5.082-18.339 15.102-18.365 22.96-.003.868-1.193 2.67-2.643 4.006-3.736 3.441-6.33 9.648-6.356 15.205l-.022 4.764 4.078-2.955c5.415-3.922 11.648-5.796 21.963-6.603 4.74-.37 10.457-1.51 12.898-2.572 5.969-2.594 6.327-2.474 5.542 1.85-1.247 6.874-4.578 11.605-17.823 25.32-18.244 18.888-23.317 28.2-24.54 45.044l-.618 8.514-1.105-1.149c-16.22-16.304-24.007-35.377-24.03-58.844-.034-37.93 26.898-71.427 65.098-80.965 5.372-1.341 12.59-1.963 19.76-1.887M74.212 58.092c1.665-.048 2.25 1.409.552 3.831-1.64 2.343-4.851 2.879-6.01 1.003-.408-.66.266-1.962 1.554-3.005 1.518-1.229 2.905-1.8 3.904-1.829"/></svg>