<svg xmlns="http://www.w3.org/2000/svg" xml:space="preserve" width="501.447" height="525.965" viewBox="0 0 132.675 139.162"><g style="display:inline"><text xml:space="preserve" x="73.493" y="248.047" style="font-style:normal;font-variant:normal;font-weight:700;font-stretch:normal;font-size:35.2778px;font-family:&quot;IBM Plex Sans&quot;;-inkscape-font-specification:&quot;IBM Plex Sans Bold&quot;;text-align:start;writing-mode:lr-tb;direction:ltr;text-anchor:start;display:inline;fill:#000;stroke:#000;stroke-width:2;stroke-opacity:1" transform="translate(-75.421 -115.565)"><tspan x="73.493" y="248.047" style="font-style:normal;font-variant:normal;font-weight:700;font-stretch:normal;font-size:35.2778px;font-family:Montserrat;-inkscape-font-specification:&quot;Montserrat Bold&quot;;fill:#000;stroke:#000;stroke-width:2;stroke-opacity:1">LYNQIS</tspan></text><path d="M140.43 115.565c-9.86 0-12.968.656-20.348 4.296-9.862 4.864-17.6 12.768-22 22.471-3.182 7.019-4.59 16.06-3.698 23.736 1.376 11.84 5.838 20.816 14.354 28.878 6.318 5.981 14.241 10.161 22.906 12.086 4.787 1.063 15.861.73 20.8-.627 19.239-5.283 32.428-20.723 34.45-40.332.551-5.337.01-12.018-1.372-16.953-4.305-15.371-17.339-28.165-33.167-32.556-3.074-.853-4.815-1-11.924-1m.569 7.34c3.31.035 6.596.393 8.985 1.065 18.64 5.239 30.492 21.38 29.38 40.012-.62 10.387-4.73 18.944-12.51 26.046-3.762 3.435-7.16 5.48-12.236 7.363-2.635.977-5.262 1.095-7.696.694.115-.696.292-1.353.572-2.213 1.09-3.34 3.216-6.236 6.308-8.59 1.54-1.171 3.168-2.174 6.276-3.864 5.339-2.903 7.588-4.448 9.631-6.616 1.803-1.913 2.994-3.876 3.821-6.294.921-2.692 1.154-6.406.607-9.662l-.083-.494-1.045 1.033c-2.253 2.23-5.008 3.896-10.043 6.07-.87.375-2.843 1.227-4.383 1.894-8.722 3.774-12.294 6.547-14.682 11.4-1.427 2.899-2.246 7.13-2.006 10.356.09 1.213.486 4.231.547 4.17.021-.022.118-.531.216-1.131 1.084-6.68 5.097-11.92 12.708-16.59 1.388-.852 4.9-2.713 4.977-2.638.025.024-.321.32-.769.656-2.633 1.98-6.146 5.288-8.239 7.76-2.856 3.374-4.884 7.364-5.68 11.182a19 19 0 0 0-.382 3.212c-3.467-.928-6.415-2.832-8.224-4.641-2.347-2.347-3.302-5.228-2.888-8.718.5-4.233 2.214-6.866 8.609-13.23 3.995-3.977 6.237-6.597 6.968-8.143 1.313-2.778 1.73-8.126.934-11.962-.618-2.977-3.236-8.532-4.605-9.77-.884-.8-.87-.841.76-2.272 2.258-1.983 3.816-5.461 3.82-8.535l.006-2.446-.954.889c-1.284 1.196-4.92 2.262-9.683 2.838-5.693.69-11.31 2.14-14.64 3.78-4.767 2.346-8.468 6.972-8.48 10.6-.001.401-.55 1.233-1.22 1.85-1.725 1.59-2.923 4.455-2.935 7.02l-.01 2.2 1.882-1.364c2.5-1.811 5.378-2.676 10.141-3.049 2.189-.171 4.828-.698 5.955-1.187 2.756-1.198 2.922-1.143 2.56.854-.577 3.174-2.114 5.358-8.23 11.69-8.424 8.721-10.766 13.02-11.33 20.798l-.286 3.931-.51-.53c-7.489-7.528-11.085-16.335-11.095-27.17-.016-17.513 12.419-32.98 30.056-37.383 2.481-.62 5.814-.907 9.124-.871zm-12.613 19.482c.768-.022 1.038.65.254 1.77-.757 1.08-2.24 1.328-2.775.462-.188-.304.123-.906.718-1.387.7-.568 1.341-.832 1.803-.845" style="display:inline;fill:#000;stroke-width:.461721" transform="translate(-75.421 -115.565)"/></g></svg>