<svg xmlns="http://www.w3.org/2000/svg" xml:space="preserve" viewBox="0 0 23.955 23.75"><path d="M10.72 21.282c.469-1.97 2.583-2.627 4.055-3.68 2.114-1.273 3.497-3.655 3.427-6.136-.02-.587-.13-1.993-.425-2.12-1.218 2.484-3.81 3.718-5.864 5.387-1.543 1.16-2.799 3.103-2.289 5.1.077.455.365 1.377.306.372.168-1.883 1.774-3.145 3.299-4.007.592-.272 1.582-1.278 1.761-1.277-1.093 2.07-3.88 2.828-4.438 5.25-.202.357.021 2.271.083 1.744q.021-.32.086-.633m-1.35.41c-1.26-2.242-.751-5.204 1.037-7.014 1.853-1.987 4.62-3.34 5.451-6.111.438-1.45.295-3.05-.283-4.437-.694.833-1.43 1.756-2.376 2.38-2.21 1.72-5.035 2.952-6.365 5.56-.931 1.939-.78 4.309.095 6.223-.195-2.288.803-4.544 2.417-6.14.714-.74 1.462-1.483 2.33-2.03-2.003 2.286-3.904 5.098-3.694 8.275.133 1.274.502 2.628 1.491 3.505zM11.99.134C10.272.075 8.51.292 6.987 1.14 3.205 2.873.469 6.71.243 10.882c-.278 3.563 1.124 7.233 3.835 9.591 2.285 2.075 5.386 3.348 8.499 3.078 5.05-.03 9.748-3.846 10.911-8.747.952-3.603.121-7.658-2.358-10.474C19.255 2.154 16.616.48 13.723.167 13.147.133 12.568.135 11.99.134M12.135 2c4.718-.043 9.138 3.793 9.689 8.495.474 3.23-.757 6.654-3.29 8.743-2.355 2.155-5.822 2.585-8.847 1.943-1.956-.54-3.822-1.59-5.207-3.082-3.143-3.467-3.05-9.242.085-12.682C6.441 3.276 9.262 1.894 12.135 2"/></svg>