<svg xmlns="http://www.w3.org/2000/svg" xml:space="preserve" width="23.953" height="23.724"><path d="M11.93 0C9.39 0 8.589.169 6.688 1.107 4.148 2.36 2.154 4.396 1.02 6.895.2 8.703-.162 11.032.068 13.01c.354 3.05 1.504 5.363 3.697 7.44a12.5 12.5 0 0 0 5.901 3.113c1.233.274 4.086.188 5.358-.162 4.956-1.36 8.353-5.338 8.874-10.39.142-1.374.003-3.095-.353-4.366-1.11-3.96-4.467-7.256-8.544-8.387C14.21.037 13.761 0 11.93 0m.146 1.89c.852.01 1.7.102 2.314.275 4.802 1.35 7.855 5.507 7.569 10.307-.16 2.676-1.219 4.88-3.223 6.71-.97.884-1.844 1.411-3.152 1.896a3.85 3.85 0 0 1-1.982.179c.03-.18.075-.349.147-.57.28-.86.828-1.606 1.625-2.213.396-.302.816-.56 1.617-.995 1.375-.748 1.954-1.146 2.48-1.705a4.3 4.3 0 0 0 .985-1.62c.237-.694.297-1.651.156-2.49l-.021-.127-.27.266c-.58.575-1.29 1.004-2.586 1.563l-1.13.489c-2.246.972-3.166 1.686-3.782 2.936-.367.747-.578 1.837-.516 2.668.023.312.125 1.09.14 1.074a3 3 0 0 0 .056-.291c.28-1.721 1.313-3.07 3.274-4.274.357-.22 1.262-.699 1.282-.68.006.007-.083.083-.198.17a15 15 0 0 0-2.123 1.999c-.735.869-1.258 1.897-1.463 2.88a5 5 0 0 0-.098.827c-.893-.239-1.653-.729-2.119-1.195-.604-.605-.85-1.347-.744-2.246.13-1.09.57-1.768 2.218-3.408 1.03-1.024 1.607-1.7 1.795-2.097.338-.716.446-2.094.24-3.082-.158-.767-.833-2.198-1.185-2.517-.228-.206-.225-.216.195-.585.582-.51.983-1.407.985-2.198v-.63l-.245.229c-.33.308-1.267.582-2.494.73-1.467.178-2.914.552-3.772.974-1.227.605-2.18 1.796-2.184 2.731 0 .103-.142.318-.314.476-.445.41-.753 1.148-.756 1.809l-.003.567.485-.352c.644-.466 1.386-.69 2.612-.785.564-.044 1.244-.18 1.535-.306.71-.309.752-.294.659.22-.149.817-.545 1.38-2.12 3.011-2.17 2.247-2.773 3.354-2.919 5.358l-.073 1.012-.132-.136c-1.929-1.94-2.855-4.208-2.858-6.999-.004-4.511 3.2-8.495 7.743-9.63.639-.16 1.497-.233 2.35-.224m-3.25 5.018c.199-.005.268.168.066.456-.195.279-.577.342-.715.12-.048-.08.032-.234.185-.358.18-.146.346-.214.465-.218" /></svg>
