<svg xmlns="http://www.w3.org/2000/svg" xml:space="preserve" width="23.955" height="23.75"><path d="M10.642 21.418c.474-1.994 2.614-2.66 4.104-3.726 2.14-1.288 3.54-3.7 3.469-6.211-.02-.594-.131-2.018-.43-2.146-1.233 2.514-3.857 3.763-5.936 5.453-1.562 1.175-2.833 3.141-2.317 5.163.078.46.369 1.394.31.376.17-1.906 1.795-3.183 3.339-4.056.6-.275 1.602-1.294 1.783-1.293-1.107 2.096-3.927 2.863-4.493 5.314-.204.362.022 2.3.084 1.766q.022-.323.087-.64m-1.367.415c-1.275-2.27-.76-5.268 1.05-7.101 1.876-2.011 4.678-3.38 5.519-6.186.443-1.468.298-3.087-.287-4.492-.702.844-1.448 1.778-2.405 2.41-2.237 1.74-5.097 2.988-6.444 5.628-.942 1.963-.79 4.362.097 6.3-.198-2.316.813-4.6 2.446-6.215.723-.749 1.48-1.502 2.36-2.055-2.029 2.313-3.953 5.16-3.74 8.376.134 1.29.508 2.66 1.509 3.548zM11.928.009c-1.74-.059-3.524.16-5.066 1.02C3.034 2.782.264 6.665.035 10.89c-.281 3.606 1.138 7.322 3.883 9.709 2.313 2.1 5.452 3.389 8.603 3.116 5.113-.03 9.868-3.894 11.046-8.855.963-3.647.122-7.752-2.388-10.603C19.281 2.054 16.61.358 13.681.043 13.098.008 12.512.01 11.928.009m.146 1.89c4.776-.043 9.25 3.84 9.808 8.6.48 3.269-.766 6.736-3.33 8.85-2.384 2.182-5.894 2.617-8.956 1.967-1.98-.546-3.869-1.61-5.272-3.12-3.181-3.509-3.087-9.355.087-12.838C6.31 3.19 9.165 1.791 12.074 1.899"/></svg>