<svg xmlns="http://www.w3.org/2000/svg" xml:space="preserve" viewBox="0 0 23.953 23.724"><path d="M11.93.208c-2.495 0-3.282.166-5.15 1.088-2.496 1.23-4.456 3.232-5.57 5.687C.404 8.76.05 11.048.275 12.993c.348 2.996 1.478 5.269 3.633 7.31a12.3 12.3 0 0 0 5.798 3.059c1.212.27 4.015.185 5.265-.16 4.87-1.336 8.208-5.245 8.72-10.209.14-1.35.003-3.041-.347-4.29-1.09-3.891-4.39-7.13-8.395-8.242C14.17.244 13.73.208 11.93.208m.143 1.857c.837.01 1.67.1 2.274.27 4.719 1.327 7.719 5.412 7.438 10.128-.157 2.63-1.198 4.796-3.167 6.594-.953.869-1.812 1.386-3.098 1.863a3.8 3.8 0 0 1-1.947.176 4 4 0 0 1 .144-.56c.275-.845.814-1.578 1.597-2.175.39-.297.802-.55 1.589-.978 1.351-.735 1.92-1.126 2.437-1.675a4.2 4.2 0 0 0 .968-1.592c.233-.682.292-1.622.153-2.447l-.02-.124-.266.261c-.57.565-1.267.987-2.54 1.536l-1.111.48c-2.207.956-3.111 1.657-3.717 2.885-.36.734-.568 1.806-.507 2.622.023.307.123 1.071.138 1.055a3 3 0 0 0 .055-.285c.275-1.692 1.29-3.017 3.217-4.2.35-.216 1.24-.687 1.26-.668.006.006-.082.081-.195.167a14.7 14.7 0 0 0-2.086 1.964c-.722.854-1.236 1.864-1.438 2.83a5 5 0 0 0-.096.813c-.877-.235-1.624-.717-2.082-1.175-.594-.594-.835-1.323-.731-2.207.128-1.07.56-1.737 2.18-3.349 1.011-1.006 1.578-1.67 1.763-2.06.332-.704.438-2.058.236-3.029-.155-.753-.819-2.16-1.164-2.473-.224-.202-.221-.212.191-.575.572-.501.966-1.382.968-2.16v-.619l-.24.225c-.325.303-1.246.572-2.451.718-1.442.174-2.864.542-3.707.957-1.206.594-2.142 1.765-2.146 2.683 0 .101-.14.313-.309.468-.437.403-.74 1.128-.742 1.778l-.003.557.476-.346c.633-.458 1.362-.678 2.567-.771.554-.044 1.222-.177 1.508-.301.698-.304.74-.29.648.216-.147.803-.536 1.356-2.083 2.959-2.133 2.208-2.725 3.296-2.869 5.265l-.071.994-.13-.133c-1.896-1.907-2.806-4.135-2.809-6.878-.003-4.433 3.145-8.348 7.61-9.463.627-.157 1.47-.229 2.308-.22M8.881 6.997c.195-.005.263.165.065.448-.192.274-.567.336-.703.118-.047-.079.031-.23.182-.352.177-.143.34-.21.457-.214"/></svg>