<svg xmlns="http://www.w3.org/2000/svg" xml:space="preserve" width="731.529" height="202.554" viewBox="0 0 193.55 53.592"><g style="display:inline"><path d="M-220.904 42.863c-21.357 0-28.088 1.42-44.07 9.304-21.36 10.535-38.12 27.653-47.649 48.67-6.892 15.2-9.943 34.78-8.01 51.405 2.98 25.644 12.644 45.085 31.089 62.545 13.684 12.954 30.843 22.008 49.61 26.176 10.367 2.303 34.351 1.58 45.048-1.357 41.668-11.442 70.233-44.884 74.614-87.353 1.192-11.558.02-26.028-2.973-36.717-9.324-33.29-37.553-61-71.834-70.51-6.658-1.847-10.427-2.164-25.825-2.164m1.23 15.897c7.168.076 14.287.852 19.46 2.306 40.372 11.347 66.04 46.305 63.631 86.66-1.342 22.494-10.244 41.029-27.092 56.41-8.15 7.44-15.509 11.868-26.503 15.946h-.001c-7.747 2.874-31.628 7.075-52.272 1.45-20.644-5.624-38.05-21.076-38.05-21.076-16.22-16.304-24.007-35.378-24.03-58.844-.034-37.93 26.898-71.428 65.097-80.965 5.373-1.341 12.591-1.964 19.76-1.887z" style="display:inline;stroke-width:3.7856" transform="translate(668.35 -545.286)"/><text xml:space="preserve" x="369.338" y="8.986" style="font-style:normal;font-variant:normal;font-weight:700;font-stretch:normal;font-size:35.2778px;font-family:&quot;IBM Plex Sans&quot;;-inkscape-font-specification:&quot;IBM Plex Sans Bold&quot;;text-align:start;writing-mode:lr-tb;direction:ltr;text-anchor:start;display:inline;fill:#000;stroke:#000;stroke-width:2;stroke-opacity:1" transform="translate(668.35 -545.286)"><tspan x="369.338" y="8.986" style="font-style:normal;font-variant:normal;font-weight:700;font-stretch:normal;font-size:35.2778px;font-family:Nunito;-inkscape-font-specification:&quot;Nunito Bold&quot;;fill:#000;stroke:#000;stroke-width:2;stroke-opacity:1">QHSE</tspan></text></g><g style="display:inline"><text xml:space="preserve" x="114.912" y="254.343" style="font-style:normal;font-variant:normal;font-weight:700;font-stretch:normal;font-size:14.1111px;font-family:&quot;IBM Plex Sans&quot;;-inkscape-font-specification:&quot;IBM Plex Sans Bold&quot;;text-align:start;writing-mode:lr-tb;direction:ltr;text-anchor:start;display:inline;fill:#000;stroke:#000;stroke-width:1.92182;stroke-opacity:1" transform="translate(-47.039 -208.397)"><tspan x="114.912" y="254.343" style="font-style:normal;font-variant:normal;font-weight:700;font-stretch:normal;font-size:14.1111px;font-family:Nunito;-inkscape-font-specification:&quot;Nunito Bold&quot;;fill:#000;stroke:#000;stroke-width:1.92182;stroke-opacity:1">HSE</tspan></text><text xml:space="preserve" x="113.389" y="238.21" style="font-style:normal;font-variant:normal;font-weight:700;font-stretch:normal;font-size:33.8989px;font-family:&quot;IBM Plex Sans&quot;;-inkscape-font-specification:&quot;IBM Plex Sans Bold&quot;;text-align:start;writing-mode:lr-tb;direction:ltr;text-anchor:start;display:inline;fill:#000;stroke:#000;stroke-width:1.92182;stroke-opacity:1" transform="translate(-47.039 -208.397)"><tspan x="113.389" y="238.21" style="font-style:normal;font-variant:normal;font-weight:700;font-stretch:normal;font-size:33.8989px;font-family:Nunito;-inkscape-font-specification:&quot;Nunito Bold&quot;;fill:#000;stroke:#000;stroke-width:1.92182;stroke-opacity:1">LeanQis</tspan></text><path d="M73.988 208.397c-5.738 0-7.547.382-11.841 2.5-5.739 2.83-10.242 7.43-12.802 13.077-1.852 4.084-2.672 9.345-2.153 13.812.801 6.89 3.398 12.113 8.353 16.805 3.677 3.48 8.287 5.913 13.33 7.033 2.785.618 9.23.424 12.104-.365 11.195-3.074 18.87-12.06 20.047-23.47.32-3.105.006-6.993-.799-9.865-2.505-8.945-10.09-16.39-19.3-18.945-1.79-.497-2.802-.582-6.94-.582m.33 4.272c1.926.02 3.839.229 5.229.62 10.847 3.048 17.744 12.44 17.096 23.283-.36 6.044-2.752 11.024-7.279 15.157-2.19 1.999-4.167 3.189-7.12 4.284h-.001c-1.73.642-6.46 1.526-11.193.938.011-.057.021-.135.032-.183.294-1.322 1.041-2.604 2.147-3.683.873-.851 1.812-1.507 3.915-2.737 4.406-2.576 6.504-4.273 8.161-6.6 2.665-3.743 3.56-8.788 2.372-13.369l-.305-1.177-.307.544c-1.953 3.46-3.835 5.319-9.022 8.907-4.015 2.778-6.01 4.481-7.454 6.369-1.497 1.957-2.25 4.077-2.264 6.383-.006.808.05 1.205.353 2.49.214.907.411 1.562.487 1.612.091.06.113.014.076-.167-.077-.385.069-1.578.295-2.412.294-1.082.712-1.96 1.4-2.938 1.103-1.57 2.266-2.569 5.002-4.292 2.533-1.595 3.531-2.338 4.644-3.455.277-.279.469-.434.426-.346-.829 1.73-1.99 3.008-4.81 5.297-2.034 1.652-2.62 2.187-3.467 3.174-1.719 2-2.395 4.041-2.164 6.518a20 20 0 0 1-2.369-.483q-.465-.129-.923-.28c-.438-1.184-.758-2.537-.843-3.692-.314-4.233 1.216-8.074 4.539-11.399 1.037-1.038 1.777-1.692 3.797-3.358 4.227-3.485 5.88-5.288 7.209-7.865 1.595-3.091 1.882-6.9.797-10.601-.624-2.13-.493-2.048-1.338-.84-1.677 2.394-3.359 3.828-8.791 7.496-5.131 3.465-6.81 4.83-8.61 7.004-2.632 3.176-3.654 6.951-3.15 11.635.15 1.39.704 3.562 1.266 4.967.3.751.315.712.256-.7-.14-3.318 1.017-6.992 3.157-10.026 1.642-2.328 4.824-5.502 7.252-7.233.674-.48.673-.478-.397.761-4.41 5.11-6.948 10.067-7.49 14.63-.248 2.078-.202 3.275.2 5.248.331 1.62.654 2.546 1.273 3.661-4.722-1.789-8.427-5.071-8.427-5.071-4.358-4.38-6.45-9.505-6.456-15.81-.01-10.192 7.227-19.192 17.49-21.754 1.444-.36 3.383-.528 5.31-.507" style="display:inline;stroke-width:1.01712" transform="translate(-47.039 -208.397)"/></g></svg>