<svg xmlns="http://www.w3.org/2000/svg" xml:space="preserve" width="24" height="24" viewBox="0 0 24 24"><path d="M100.3 0C78.943 0 72.212 1.421 56.229 9.305 34.868 19.839 18.11 36.958 8.581 57.974c-6.892 15.2-9.943 34.781-8.01 51.406 2.98 25.643 12.644 45.085 31.088 62.545 13.684 12.953 30.843 22.007 49.61 26.176 10.367 2.303 34.352 1.58 45.05-1.358 41.667-11.441 70.231-44.883 74.613-87.353 1.192-11.557.02-26.027-2.973-36.716-9.324-33.291-37.553-61-71.834-70.51C119.466.316 115.697 0 100.3 0m1.23 15.897c7.168.077 14.287.853 19.46 2.307 40.372 11.347 66.04 46.304 63.631 86.66-1.343 22.494-10.245 41.029-27.092 56.41-8.15 7.44-15.51 11.867-26.504 15.946-7.747 2.873-31.629 7.075-52.272 1.45-20.644-5.625-38.05-21.076-38.05-21.076-16.22-16.304-24.007-35.378-24.03-58.844-.034-37.931 26.898-71.428 65.097-80.965 5.373-1.342 12.591-1.964 19.76-1.888"/><path d="M89.485 180.028c1.093-4.921 3.874-9.691 7.992-13.706 3.249-3.168 6.743-5.611 14.568-10.187 16.4-9.589 24.209-15.903 30.377-24.567 9.917-13.928 13.248-32.705 8.827-49.755l-1.136-4.382-1.142 2.023c-7.267 12.88-14.275 19.797-33.58 33.153-14.943 10.338-22.364 16.68-27.74 23.705-5.574 7.282-8.374 15.174-8.43 23.756-.019 3.007.191 4.485 1.316 9.265.795 3.377 1.53 5.815 1.812 6.001.34.227.42.054.284-.622-.288-1.43.255-5.872 1.098-8.974 1.094-4.03 2.65-7.298 5.208-10.938 4.106-5.844 8.437-9.56 18.62-15.972 9.427-5.936 13.141-8.7 17.282-12.861 1.03-1.036 1.745-1.615 1.588-1.286-3.085 6.437-7.406 11.195-17.901 19.714-7.574 6.148-9.75 8.14-12.906 11.812-7.045 8.2-9.43 16.56-7.727 27.097l.706 4.365.185-2.667c.102-1.466.417-3.705.699-4.974m-11.493 3.485c-2.94-5.106-5.34-13.207-5.816-19.626-1.166-15.753 4.527-30.05 16.893-42.426 3.86-3.862 6.615-6.299 14.134-12.497 15.73-12.97 21.882-19.68 26.83-29.271 5.938-11.507 7.004-25.685 2.968-39.458-2.322-7.926-1.837-7.622-4.982-3.129-6.238 8.912-12.499 14.25-32.717 27.903-19.098 12.896-25.346 17.978-32.048 26.065-9.794 11.821-13.598 25.874-11.72 43.304.558 5.176 2.617 13.26 4.71 18.489 1.12 2.796 1.172 2.651.952-2.603-.518-12.35 3.788-26.025 11.751-37.317 6.112-8.666 17.954-20.477 26.99-26.92 2.51-1.79 2.505-1.78-1.475 2.832-16.413 19.015-25.86 37.466-27.881 54.453-.92 7.73-.748 12.187.75 19.53 1.44 7.056 2.742 10.51 5.953 15.79 1.477 2.427 5.116 6.77 5.593 6.674.073-.014-.326-.822-.885-1.793"/></svg>
