<svg xmlns="http://www.w3.org/2000/svg" xml:space="preserve" width="1024" height="1024" viewBox="0 0 270.933 270.933"><text xml:space="preserve" x="109.893" y="247.597" style="font-style:normal;font-variant:normal;font-weight:700;font-stretch:normal;font-size:34.2298px;font-family:&quot;IBM Plex Sans&quot;;-inkscape-font-specification:&quot;IBM Plex Sans Bold&quot;;text-align:start;writing-mode:lr-tb;direction:ltr;text-anchor:start;display:inline;fill:#000;stroke:#000;stroke-width:1.94059;stroke-opacity:1" transform="translate(-5.152 -92.007)"><tspan x="109.893" y="247.597" style="font-style:normal;font-variant:normal;font-weight:700;font-stretch:normal;font-size:34.2298px;font-family:Nunito;-inkscape-font-specification:&quot;Nunito Bold&quot;;fill:#000;stroke:#000;stroke-width:1.94059;stroke-opacity:1">REMANX</tspan></text><path d="M70.363 208.054c-5.744 0-7.554.382-11.853 2.503-5.744 2.833-10.252 7.437-12.815 13.089-1.853 4.088-2.674 9.354-2.154 13.825.802 6.897 3.4 12.126 8.361 16.822 3.68 3.484 8.295 5.919 13.343 7.04 2.788.62 9.238.425 12.115-.365 11.207-3.078 18.89-12.072 20.067-23.494.321-3.108.006-7-.8-9.875-2.507-8.953-10.099-16.405-19.319-18.963-1.79-.497-2.804-.582-6.945-.582m.33 4.276c1.929.02 3.843.229 5.234.62 10.858 3.052 17.762 12.453 17.114 23.307-.361 6.05-2.755 11.035-7.287 15.171-2.192 2.001-4.17 3.192-7.128 4.289-2.083.773-8.506 1.903-14.058.39s-10.234-5.669-10.234-5.669c-4.362-4.384-6.456-9.514-6.462-15.825-.01-10.202 7.234-19.21 17.507-21.776 1.445-.36 3.387-.528 5.315-.507m9.8 6.072-9.475.042c-10.674.047-10.778.055-12.701 1-1.53.75-3.047 2.223-3.693 3.584-.784 1.651-.839 2.281-.839 9.737 0 4.373.05 6.818.143 6.99.137.257.347.266 5.82.266 5.206 0 5.702.02 5.967.24.282.236.289.346.324 5.557.04 5.887.001 5.646.947 5.88.254.062 3.551.1 7.327.082 6.762-.03 6.88-.035 7.827-.347 2.54-.838 4.395-2.693 5.235-5.233.23-.696.253-1.52.294-10.519.049-10.876.048-10.888-.86-12.801-.358-.753-.742-1.273-1.478-2-1.129-1.116-2.156-1.71-3.745-2.165zm-6.369 4.878c3.227-.003 3.34.051 3.548.259.182.181.28.46.28.795.002.495-.199.714-5.183 5.684-4.932 4.918-5.22 5.18-5.93 5.389-.601.178-1.411.219-4.188.212-1.893-.005-3.582-.065-3.753-.134-.17-.069-.372-.285-.446-.48-.21-.554-.168-6.977.051-7.911.356-1.51 1.345-2.703 2.817-3.394l.773-.362 7.65-.04c1.885-.01 3.306-.017 4.381-.018m7.684 4.109c.582 0 .996.271 1.213.796.122.295.153 2.307.122 7.867-.042 7.303-.05 7.487-.34 8.199-.471 1.148-1.152 1.871-2.282 2.422-.545.266-1.391.545-1.883.622-1.183.184-7.527.167-7.917-.022a.8.8 0 0 1-.376-.436c-.043-.162-.08-2.02-.08-4.13-.002-3.539.019-3.878.268-4.394.164-.34 1.207-1.48 2.644-2.89a4358 4358 0 0 0 5.263-5.183c2.644-2.609 2.931-2.851 3.368-2.851m-25.339 15.946c-1.467.002-2.11.042-2.216.13-.443.367-.091 2.539.648 4.007.596 1.181 2.236 2.8 3.43 3.383 1.736.849 3.44 1.09 3.968.563.26-.26.274-.458.274-3.892 0-3.502-.009-3.626-.289-3.88-.266-.24-.576-.264-4.063-.301-.682-.007-1.263-.011-1.752-.01" style="display:inline;stroke-width:1.01812" transform="translate(-5.152 -92.007)"/></svg>