<svg xmlns="http://www.w3.org/2000/svg" xml:space="preserve" width="1024" height="1024" viewBox="0 0 270.933 270.933"><g style="display:inline"><path d="M312.616 342.31c-5.715 0-7.515.38-11.792 2.489-5.715 2.818-10.199 7.399-12.748 13.022-1.844 4.066-2.66 9.305-2.143 13.753.797 6.861 3.383 12.063 8.318 16.734 3.66 3.466 8.252 5.889 13.273 7.004 2.774.616 9.19.423 12.053-.363 11.148-3.061 18.79-12.009 19.963-23.372.319-3.092.005-6.963-.795-9.823-2.495-8.908-10.048-16.321-19.22-18.866-1.781-.494-2.79-.579-6.91-.579m.329 4.253c1.918.02 3.822.228 5.206.617 10.802 3.036 17.67 12.389 17.025 23.186-.36 6.019-2.74 10.978-7.249 15.093-2.18 1.99-4.15 3.175-7.09 4.266h-.001c-2.073.77-8.462 1.893-13.985.388-5.524-1.505-10.18-5.639-10.18-5.639-4.34-4.362-6.424-9.465-6.43-15.744-.01-10.148 7.196-19.11 17.417-21.662 1.437-.36 3.369-.526 5.287-.505m9.199 4.034c-.228.026-.335.314-.619.601-.973.984-2.599 2.165-4.428 3.215-.42.24-1.964 1.042-3.433 1.78-1.47.74-3.115 1.599-3.658 1.91-3.445 1.974-5.638 4.143-7.135 7.057-1.97 3.838-2.4 8.943-1.148 13.666.656 2.477 1.784 4.85 3.174 6.679.505.664 1.381 1.632 1.478 1.632.033 0 .16-.222.284-.493s.235-.512.248-.535c.013-.022-.281-.395-.653-.828-1.636-1.906-2.508-3.719-2.849-5.917-.175-1.134-.102-3.025.16-4.142q1.334-5.684 7.073-9.433c1.243-.812 2.388-1.44 3.945-2.167 3.411-1.59 4.297-2.107 5.37-3.13.84-.8 1.348-1.473 1.775-2.354.949-1.958 1.236-4.713.74-7.122-.062-.304-.065-.383-.219-.414a.3.3 0 0 0-.105-.005zm1.102 8.37c-.034 0-.062.04-.062.09 0 .207-1.083 1.698-1.721 2.37-1.475 1.55-2.635 2.28-6.566 4.125-1.74.817-2.695 1.336-3.794 2.066-3.033 2.013-5.212 5.09-5.79 8.177-.158.84-.265 2.03-.183 2.03.035 0 .063-.032.063-.073s.22-.405.49-.809c.596-.892 1.911-2.233 2.785-2.84 1.282-.89 1.99-1.21 4.774-2.156 2.037-.693 2.688-.948 3.649-1.43 2.456-1.23 4.112-2.882 5.184-5.17.616-1.314 1.058-3.014 1.152-4.43.074-1.12.082-1.95.019-1.95m-4.137 12.954c-1.5.722-2.007.901-4.763 1.687-1.28.364-2.61.772-2.954.906-1.794.694-3.256 1.755-4.099 2.975-.157.228-.285.433-.285.456s.097-.007.217-.068c.12-.06.448-.167.73-.236s.939-.181 1.46-.25c2.604-.345 3.807-.617 4.995-1.129 1.24-.535 2.527-1.475 3.396-2.484.433-.502 1.424-1.915 1.303-1.857m1.669 7.097c-.276-.005-.612 0-1.031.011-2.313.061-2.273.02-2.31 2.373-.027 1.802.001 1.971.398 2.304.232.196.233.196 2.01.196 1.496 0 1.82-.021 2.054-.132.55-.261.582-.395.557-2.38l-.021-1.763-.254-.226c-.304-.272-.578-.37-1.403-.383" style="baseline-shift:baseline;display:inline;overflow:visible;vector-effect:none;stroke-width:.267554;stop-color:#000;stop-opacity:1" transform="translate(-257.947 -134.464)"/><text xml:space="preserve" x="353.549" y="382.266" style="font-style:normal;font-variant:normal;font-weight:700;font-stretch:normal;font-size:35.2778px;font-family:&quot;IBM Plex Sans&quot;;-inkscape-font-specification:&quot;IBM Plex Sans Bold&quot;;text-align:start;writing-mode:lr-tb;direction:ltr;text-anchor:start;display:inline;fill:#000;stroke:#000;stroke-width:2;stroke-opacity:1" transform="translate(-257.947 -134.464)"><tspan x="353.549" y="382.266" style="font-style:normal;font-variant:normal;font-weight:700;font-stretch:normal;font-size:35.2778px;font-family:Nunito;-inkscape-font-specification:&quot;Nunito Bold&quot;;fill:#000;stroke:#000;stroke-width:2;stroke-opacity:1">RXICONS</tspan></text></g></svg>