<svg xmlns="http://www.w3.org/2000/svg" xml:space="preserve" width="23.967" height="23.762"><path d="M9.285 19.725c-.1-.97-1.416-1.85-1.416-3.056-.486-2.601 1.213-5.087 3.39-6.35 1.576-1.07 3.819-1.41 4.727-3.271.414-.984.713-2.509.144-3.342-2.228 2.437-6.004 2.798-7.969 5.551-2.176 3.088-1.708 7.635.737 10.435.098.048.355.54.387.033m6.777-1.278c.485-.438.162-1.239.238-1.842-.702-.504-2.592-.542-2.222.789-.359 1.488 1.037 1.114 1.984 1.053M9.861 15.72c1.556-.232 3.317-.392 4.381-1.718.418-.48.87-1.119-.06-.54-1.635.638-3.751.723-4.742 2.394.143-.038.273-.112.42-.136m-1.227.05c.778-1.482 2.344-2.259 3.891-2.689 1.842-.509 3.558-1.845 3.96-3.796.153-.574.465-2.673-.25-1.216-1.547 2.12-4.553 2.266-6.216 4.266-.852.94-1.441 2.181-1.413 3.467zm3.3-15.762c-1.74-.059-3.525.16-5.068 1.021-3.83 1.752-6.6 5.637-6.83 9.864-.281 3.608 1.139 7.326 3.886 9.714 2.313 2.103 5.454 3.39 8.606 3.118 5.116-.031 9.873-3.896 11.052-8.86.963-3.648.122-7.755-2.389-10.608-1.9-2.203-4.573-3.9-7.502-4.215-.584-.035-1.17-.032-1.754-.034m.147 1.892c4.778-.044 9.254 3.84 9.814 8.603.48 3.27-.768 6.74-3.332 8.856-2.386 2.182-5.897 2.617-8.96 1.967-1.982-.546-3.872-1.611-5.276-3.122-3.183-3.51-3.088-9.36.088-12.844C6.313 3.19 9.17 1.79 12.08 1.9" /></svg>
