<svg xmlns="http://www.w3.org/2000/svg" xml:space="preserve"><path d="M100.3 0C78.943 0 72.212 1.421 56.23 9.305 34.87 19.839 18.11 36.958 8.581 57.974c-6.892 15.2-9.943 34.781-8.01 51.406 2.98 25.643 12.644 45.085 31.089 62.545 13.684 12.953 30.843 22.007 49.61 26.176 10.367 2.303 34.351 1.58 45.048-1.358 41.668-11.441 70.233-44.883 74.614-87.353 1.192-11.557.02-26.027-2.973-36.716-9.323-33.291-37.553-61-71.834-70.51C119.467.316 115.698 0 100.3 0m1.23 15.897c7.169.077 14.287.853 19.46 2.307 40.372 11.347 66.04 46.304 63.631 86.66-1.342 22.494-10.244 41.029-27.092 56.41-8.15 7.44-15.509 11.868-26.503 15.946h-.001c-7.747 2.873-31.628 7.075-52.272 1.45s-38.05-21.076-38.05-21.076C24.484 141.29 16.697 122.216 16.674 98.75c-.035-37.931 26.897-71.428 65.097-80.965 5.372-1.342 12.59-1.964 19.759-1.888m36.433 22.579-35.228.155c-39.687.176-40.075.206-47.225 3.718-5.685 2.791-11.327 8.267-13.73 13.326-2.916 6.142-3.118 8.484-3.118 36.204 0 16.26.185 25.351.528 25.994.51.952 1.29.987 21.642.987 19.359 0 21.203.074 22.186.894 1.05.875 1.074 1.284 1.205 20.659.147 21.89.004 20.995 3.523 21.861.943.232 13.202.371 27.242.31 25.143-.112 25.581-.132 29.101-1.293 9.445-3.116 16.344-10.011 19.466-19.457.856-2.588.942-5.648 1.092-39.11.183-40.44.18-40.485-3.198-47.598-1.33-2.799-2.758-4.732-5.494-7.437-4.197-4.15-8.018-6.359-13.925-8.05zm-23.676 18.139c11.995-.01 12.42.19 13.19.96.675.675 1.042 1.713 1.044 2.955.004 1.84-.742 2.658-19.273 21.135-18.34 18.286-19.41 19.26-22.05 20.039-2.236.66-5.246.812-15.57.786-7.04-.017-13.32-.241-13.955-.497-.636-.255-1.383-1.06-1.66-1.788-.781-2.055-.625-25.939.192-29.412 1.322-5.616 5-10.048 10.473-12.616l2.872-1.348 28.443-.148c7.01-.036 12.295-.063 16.294-.066m28.567 15.275c2.166 0 3.703 1.01 4.512 2.962.454 1.095.57 8.578.452 29.249-.154 27.155-.182 27.838-1.266 30.486-1.748 4.27-4.28 6.958-8.48 9.005-2.028.988-5.174 2.028-7.001 2.312-4.4.686-27.99.623-29.44-.078-.607-.294-1.236-1.025-1.397-1.625-.16-.6-.296-7.508-.3-15.352-.005-13.16.071-14.422 1-16.341.61-1.26 4.487-5.498 9.828-10.746a15152 15152 0 0 0 19.57-19.27c9.833-9.7 10.9-10.602 12.522-10.602m-94.213 59.29c-5.455.01-7.85.16-8.24.483-1.646 1.367-.34 9.443 2.41 14.9 2.215 4.393 8.314 10.41 12.754 12.581 6.452 3.155 12.789 4.053 14.75 2.091.97-.97 1.022-1.702 1.022-14.471 0-13.022-.034-13.481-1.074-14.423-.992-.898-2.144-.984-15.108-1.123-2.538-.028-4.696-.04-6.514-.038"/></svg>