<svg xmlns="http://www.w3.org/2000/svg" xml:space="preserve" width="24" height="24" viewBox="0 0 24 24"><path d="M100.3 0C78.943 0 72.213 1.422 56.23 9.305 34.87 19.839 18.111 36.958 8.582 57.975 1.69 73.175-1.362 92.755.571 109.38c2.981 25.644 12.645 45.085 31.09 62.545 13.683 12.954 30.842 22.007 49.609 26.176 10.367 2.303 34.352 1.58 45.049-1.358 41.667-11.441 70.232-44.883 74.613-87.352 1.193-11.558.021-26.028-2.973-36.717-9.323-33.29-37.552-61-71.833-70.51C119.467.316 115.698 0 100.3 0m1.23 15.898c7.169.076 14.287.852 19.46 2.306 40.373 11.347 66.04 46.305 63.632 86.66-1.343 22.494-10.245 41.029-27.093 56.41-8.15 7.44-15.508 11.868-26.503 15.946-7.747 2.874-31.629 7.075-52.273 1.45-20.643-5.625-38.05-21.076-38.05-21.076-16.219-16.304-24.006-35.378-24.029-58.844-.035-37.931 26.897-71.428 65.097-80.965 5.372-1.342 12.59-1.964 19.76-1.887z"/><path d="M78.038 165.703c.46-1.014.877-1.913.925-1.997s-1.049-1.479-2.438-3.097c-6.114-7.123-9.377-13.898-10.648-22.113-.656-4.24-.384-11.307.595-15.484 3.32-14.156 12.142-25.92 26.436-35.254 4.646-3.034 8.926-5.385 14.746-8.099 12.75-5.945 16.062-7.875 20.072-11.698 3.139-2.992 5.035-5.509 6.632-8.801 3.548-7.317 4.62-17.614 2.77-26.617-.233-1.138-.247-1.434-.82-1.549-1.146-.229-1.495 1.003-2.707 2.23-3.636 3.676-9.714 8.088-16.552 12.015-1.565.899-7.338 3.894-12.83 6.656-5.491 2.761-11.643 5.971-13.67 7.134-12.88 7.38-21.075 15.487-26.668 26.377-7.366 14.343-8.97 33.423-4.293 51.076 2.454 9.26 6.667 18.126 11.863 24.963 1.888 2.484 5.164 6.101 5.526 6.101.122 0 .6-.83 1.06-1.843m56.961-10.741c2.057-.976 2.174-1.476 2.082-8.897l-.081-6.586-.947-.846c-1.516-1.354-2.83-1.554-9.1-1.39-8.642.228-8.493.075-8.63 8.867-.104 6.735.005 7.369 1.484 8.613.87.731.871.731 7.512.731 5.594 0 6.806-.078 7.68-.492m-52.119-22.906c1.055-.258 3.51-.679 5.456-.937 9.736-1.288 14.232-2.303 18.673-4.218 4.636-1.999 9.441-5.514 12.692-9.286 1.616-1.875 5.322-7.156 4.87-6.938-5.607 2.696-7.503 3.368-17.802 6.302-4.785 1.364-9.754 2.888-11.043 3.386-6.704 2.595-12.168 6.562-15.318 11.123-.587.85-1.067 1.617-1.067 1.704s.365-.028.811-.255 1.674-.623 2.728-.88m-10.322.413c0-.152.825-1.512 1.834-3.023 2.225-3.333 7.141-8.347 10.405-10.614 4.792-3.326 7.437-4.52 17.843-8.06 7.615-2.589 10.047-3.541 13.64-5.342 9.179-4.6 15.368-10.772 19.376-19.326 2.3-4.909 3.953-11.264 4.305-16.558.278-4.185.308-7.29.07-7.29-.126 0-.23.154-.23.341 0 .773-4.05 6.344-6.434 8.853-5.51 5.797-9.847 8.522-24.541 15.42-6.505 3.054-10.07 4.995-14.18 7.723-11.335 7.522-19.479 19.022-21.641 30.561-.589 3.143-.988 7.59-.68 7.59.128 0 .233-.123.233-.275"/></svg>
