<svg xmlns="http://www.w3.org/2000/svg" xml:space="preserve" viewBox="0 0 23.967 23.762"><path d="M9.313 19.58c-.097-.949-1.384-1.81-1.384-2.988-.475-2.543 1.186-4.974 3.314-6.209 1.541-1.046 3.734-1.378 4.622-3.198.405-.962.697-2.453.14-3.267-2.178 2.382-5.87 2.735-7.79 5.427-2.128 3.02-1.67 7.465.72 10.202.096.047.347.528.378.032m6.626-1.249c.474-.428.159-1.211.233-1.8-.686-.494-2.534-.53-2.172.77-.351 1.455 1.013 1.09 1.94 1.03m-6.063-2.666c1.52-.227 3.243-.383 4.283-1.68.409-.47.85-1.094-.059-.528-1.598.624-3.667.707-4.636 2.34.14-.036.267-.109.41-.132m-1.199.049c.76-1.45 2.292-2.209 3.804-2.63 1.801-.497 3.479-1.803 3.872-3.71.15-.562.455-2.614-.245-1.19-1.512 2.073-4.451 2.216-6.077 4.171-.833.92-1.409 2.133-1.381 3.39zM11.902.303c-1.7-.058-3.446.156-4.955.997C3.203 3.013.495 6.812.27 10.944c-.275 3.528 1.113 7.163 3.8 9.498 2.26 2.056 5.331 3.314 8.413 3.048 5.002-.03 9.653-3.809 10.806-8.662.941-3.567.119-7.582-2.336-10.372-1.858-2.153-4.471-3.813-7.335-4.12-.57-.035-1.144-.032-1.715-.034m.144 1.85c4.672-.043 9.048 3.754 9.595 8.411.47 3.197-.75 6.59-3.257 8.659-2.333 2.133-5.766 2.558-8.76 1.923-1.938-.534-3.786-1.575-5.159-3.053-3.112-3.431-3.02-9.15.086-12.557 1.856-2.122 4.649-3.49 7.494-3.383"/></svg>