<svg xmlns="http://www.w3.org/2000/svg" xml:space="preserve" width="1024" height="1024" viewBox="0 0 270.933 270.933"><path d="M138.828 116.758c-9.773 0-12.853.65-20.167 4.258-9.775 4.82-17.444 12.654-21.804 22.271-3.154 6.956-4.55 15.917-3.666 23.524 1.364 11.735 5.786 20.631 14.226 28.621 6.262 5.928 14.114 10.07 22.702 11.978 4.744 1.054 15.72.723 20.615-.62 19.067-5.237 32.139-20.54 34.144-39.974.545-5.289.01-11.91-1.36-16.802-4.267-15.234-17.185-27.914-32.873-32.266-3.047-.845-4.771-.99-11.817-.99m.562 7.275c3.281.035 6.538.39 8.906 1.055 18.474 5.193 30.22 21.19 29.118 39.656-.615 10.294-4.688 18.776-12.398 25.814-3.73 3.405-7.097 5.43-12.128 7.297-3.545 1.315-14.473 3.238-23.92.664s-17.412-9.645-17.412-9.645c-7.422-7.46-10.986-16.189-10.996-26.927-.016-17.358 12.308-32.686 29.789-37.05 2.458-.614 5.761-.899 9.041-.864m16.673 10.332-16.12.071c-18.162.08-18.34.095-21.612 1.701-2.601 1.278-5.183 3.784-6.282 6.098-1.335 2.81-1.427 3.883-1.427 16.568 0 7.44.084 11.6.242 11.895.233.435.59.451 9.903.451 8.859 0 9.702.034 10.152.41.481.4.492.587.552 9.453.067 10.017.002 9.607 1.612 10.004.432.106 6.041.17 12.466.141 11.506-.05 11.706-.06 13.317-.591 4.322-1.426 7.479-4.581 8.908-8.903.391-1.185.43-2.585.5-17.898.083-18.505.081-18.526-1.464-21.781-.608-1.28-1.262-2.165-2.514-3.403-1.921-1.899-3.67-2.91-6.373-3.683zm-10.835 8.3c5.49-.004 5.683.087 6.036.44.31.309.477.784.478 1.352.002.843-.34 1.217-8.82 9.671-8.392 8.368-8.882 8.814-10.09 9.17-1.023.303-2.4.372-7.125.36-3.221-.009-6.095-.11-6.386-.227-.29-.117-.633-.485-.76-.818-.357-.94-.286-11.87.088-13.46.605-2.57 2.289-4.598 4.793-5.773l1.314-.617 13.016-.067c3.208-.017 5.626-.029 7.456-.03zm13.073 6.99c.99 0 1.694.462 2.065 1.356.207.5.26 3.925.206 13.384-.07 12.427-.083 12.74-.58 13.951-.8 1.954-1.957 3.184-3.88 4.12-.928.453-2.367.929-3.203 1.06-2.013.313-12.809.284-13.472-.037-.278-.134-.566-.469-.64-.743-.073-.275-.135-3.436-.137-7.026-.002-6.021.033-6.6.458-7.478.279-.576 2.053-2.516 4.497-4.917 2.22-2.18 6.25-6.149 8.956-8.818 4.5-4.438 4.987-4.852 5.73-4.852m-43.113 27.132c-2.496.004-3.592.073-3.77.221-.754.626-.156 4.321 1.103 6.818 1.013 2.01 3.804 4.764 5.836 5.758 2.952 1.443 5.852 1.854 6.75.957.443-.444.467-.78.467-6.623 0-5.959-.016-6.169-.491-6.6-.454-.41-.982-.45-6.914-.514a245 245 0 0 0-2.98-.017" style="display:inline;stroke-width:1.73231" transform="translate(1.561 -64.539)"/><text xml:space="preserve" x="65.095" y="247.697" style="font-style:normal;font-variant:normal;font-weight:700;font-stretch:normal;font-size:34.2298px;font-family:&quot;IBM Plex Sans&quot;;-inkscape-font-specification:&quot;IBM Plex Sans Bold&quot;;text-align:start;writing-mode:lr-tb;direction:ltr;text-anchor:start;display:inline;fill:#000;stroke:#000;stroke-width:1.94059;stroke-opacity:1" transform="translate(1.561 -64.539)"><tspan x="65.095" y="247.697" style="font-style:normal;font-variant:normal;font-weight:700;font-stretch:normal;font-size:34.2298px;font-family:Nunito;-inkscape-font-specification:&quot;Nunito Bold&quot;;fill:#000;stroke:#000;stroke-width:1.94059;stroke-opacity:1">REMANX</tspan></text></svg>