<svg xmlns="http://www.w3.org/2000/svg" xml:space="preserve" width="1024" height="1024" viewBox="0 0 270.933 270.933"><path d="M329.836 210.928c-9.85 0-12.956.656-20.328 4.292-9.852 4.86-17.583 12.756-21.978 22.45-3.179 7.01-4.587 16.043-3.695 23.71 1.375 11.83 5.833 20.797 14.34 28.85 6.312 5.976 14.227 10.152 22.883 12.075 4.782 1.062 15.845.728 20.78-.627 19.22-5.277 32.395-20.703 34.416-40.292.55-5.331.009-12.006-1.371-16.936-4.301-15.356-17.322-28.137-33.135-32.524-3.07-.852-4.81-.998-11.912-.998m.567 7.333c3.307.035 6.59.393 8.977 1.064 18.622 5.234 30.462 21.358 29.35 39.973-.619 10.376-4.725 18.925-12.496 26.02-3.76 3.431-7.154 5.474-12.225 7.355-3.574 1.325-14.59 3.263-24.112.669-9.522-2.595-17.55-9.722-17.55-9.722-7.482-7.52-11.074-16.318-11.084-27.142-.016-17.496 12.406-32.947 30.026-37.346 2.478-.62 5.808-.906 9.115-.87m15.86 6.954c-.393.046-.577.543-1.067 1.038-1.677 1.696-4.48 3.73-7.634 5.542-.722.415-3.385 1.796-5.918 3.07s-5.37 2.755-6.306 3.29c-5.94 3.405-9.72 7.145-12.3 12.168-3.398 6.615-4.138 15.416-1.98 23.56 1.13 4.27 3.074 8.36 5.471 11.513.871 1.146 2.382 2.815 2.549 2.815.056 0 .277-.383.49-.85.212-.468.404-.883.426-.922s-.484-.682-1.125-1.428c-2.82-3.286-4.325-6.41-4.91-10.2-.303-1.955-.178-5.216.274-7.142 1.531-6.53 5.6-11.956 12.193-16.262 2.143-1.4 4.118-2.483 6.802-3.735 5.88-2.742 7.409-3.633 9.259-5.396 1.447-1.38 2.322-2.54 3.059-4.06 1.636-3.375 2.13-8.124 1.277-12.277-.107-.525-.114-.661-.378-.714a.6.6 0 0 0-.182-.01zm1.9 14.43c-.059 0-.107.07-.107.157 0 .356-1.868 2.926-2.967 4.083-2.542 2.674-4.542 3.931-11.32 7.113-3 1.409-4.645 2.304-6.541 3.562-5.229 3.47-8.985 8.775-9.982 14.097-.272 1.45-.456 3.501-.314 3.501.06 0 .108-.057.108-.127s.38-.697.846-1.394c1.026-1.538 3.294-3.85 4.8-4.896 2.21-1.534 3.43-2.086 8.23-3.718 3.512-1.194 4.634-1.633 6.291-2.464 4.234-2.122 7.089-4.969 8.938-8.914 1.06-2.265 1.823-5.196 1.985-7.638.128-1.93.142-3.362.032-3.362m-7.132 22.334c-2.586 1.244-3.46 1.554-8.211 2.907-2.207.63-4.5 1.332-5.094 1.562-3.092 1.197-5.612 3.027-7.065 5.13-.27.393-.493.746-.493.786s.169-.012.375-.117c.205-.105.772-.288 1.258-.407.486-.118 1.619-.313 2.517-.431 4.49-.595 6.564-1.063 8.613-1.946 2.138-.922 4.355-2.544 5.854-4.283.745-.865 2.455-3.302 2.246-3.201m2.877 12.235c-.475-.008-1.055 0-1.778.02-3.986.104-3.918.034-3.98 4.09-.048 3.106 0 3.398.684 3.972.4.337.402.337 3.465.337 2.58 0 3.14-.036 3.542-.227.949-.45 1.003-.68.96-4.103l-.037-3.039-.437-.39c-.524-.468-.996-.637-2.42-.66" style="baseline-shift:baseline;display:inline;overflow:visible;vector-effect:none;stroke-width:.461261;stop-color:#000;stop-opacity:1" transform="translate(-191.03 -95.25)"/><text xml:space="preserve" x="248.293" y="343.254" style="font-style:normal;font-variant:normal;font-weight:700;font-stretch:normal;font-size:35.2778px;font-family:&quot;IBM Plex Sans&quot;;-inkscape-font-specification:&quot;IBM Plex Sans Bold&quot;;text-align:start;writing-mode:lr-tb;direction:ltr;text-anchor:start;display:inline;fill:#000;stroke:#000;stroke-width:2;stroke-opacity:1" transform="translate(-191.03 -95.25)"><tspan x="248.293" y="343.254" style="font-style:normal;font-variant:normal;font-weight:700;font-stretch:normal;font-size:35.2778px;font-family:Nunito;-inkscape-font-specification:&quot;Nunito Bold&quot;;fill:#000;stroke:#000;stroke-width:2;stroke-opacity:1">RXICONS</tspan></text></svg>