<svg xmlns="http://www.w3.org/2000/svg" xml:space="preserve" viewBox="0 0 24.01 23.78"><path d="M11.958 0C9.412 0 8.609.17 6.704 1.11 4.157 2.364 2.159 4.405 1.023 6.911.2 8.724-.162 11.058.068 13.04c.355 3.057 1.507 5.375 3.706 7.457a12.56 12.56 0 0 0 5.915 3.12c1.236.275 4.095.189 5.37-.161 4.968-1.364 8.374-5.351 8.896-10.415.142-1.377.002-3.103-.354-4.377-1.112-3.969-4.478-7.272-8.564-8.406C14.243.038 13.793 0 11.957 0m.147 1.895c.855.01 1.704.102 2.32.275 4.813 1.353 7.874 5.52 7.586 10.332-.16 2.682-1.22 4.891-3.23 6.725-.971.887-1.849 1.415-3.16 1.901-.923.343-3.77.844-6.231.173-2.461-.67-4.536-2.513-4.536-2.513-1.934-1.944-2.862-4.218-2.865-7.015-.004-4.522 3.206-8.516 7.76-9.653.641-.16 1.502-.234 2.356-.225m4.344 2.692-4.2.019c-4.731.02-4.778.024-5.63.443-.678.333-1.35.985-1.637 1.589-.348.732-.372 1.011-.372 4.316 0 1.938.022 3.022.063 3.099.061.113.154.117 2.58.117 2.308 0 2.528.01 2.645.107.126.104.128.153.144 2.463.018 2.61 0 2.503.42 2.606.112.028 1.574.044 3.248.037 2.997-.013 3.05-.016 3.47-.154a3.56 3.56 0 0 0 2.32-2.32c.102-.308.112-.673.13-4.662.022-4.822.022-4.827-.381-5.675-.159-.334-.329-.564-.655-.887-.5-.494-.956-.758-1.66-.96ZM13.625 6.75c1.43-.002 1.48.022 1.573.114a.5.5 0 0 1 .124.352c0 .22-.088.317-2.298 2.52-2.186 2.18-2.314 2.296-2.628 2.39-.267.078-.626.096-1.857.093-.839-.002-1.588-.029-1.663-.06a.42.42 0 0 1-.198-.213c-.093-.245-.075-3.092.023-3.506.157-.67.596-1.198 1.248-1.504l.343-.16 3.39-.019zm3.406 1.82a.54.54 0 0 1 .538.354c.054.13.068 1.022.054 3.487-.019 3.237-.022 3.319-.151 3.634-.209.51-.51.83-1.011 1.074a3.6 3.6 0 0 1-.835.276c-.524.081-3.337.074-3.51-.01a.35.35 0 0 1-.166-.193c-.02-.072-.035-.896-.036-1.83 0-1.57.008-1.72.12-1.949.072-.15.534-.655 1.17-1.281l2.334-2.297c1.172-1.157 1.3-1.264 1.493-1.264M5.799 15.639c-.65.001-.936.02-.983.058-.196.163-.04 1.126.288 1.776.264.524.991 1.241 1.52 1.5.77.376 1.525.483 1.759.25.115-.116.122-.204.122-1.726 0-1.552-.004-1.607-.128-1.72-.119-.106-.256-.117-1.802-.133q-.452-.006-.776-.005"/></svg>