<svg xmlns="http://www.w3.org/2000/svg" xml:space="preserve" viewBox="0 0 24.01 23.78"><path d="M12 .25C9.5.25 8.71.417 6.838 1.34 4.335 2.574 2.372 4.58 1.255 7.042.447 8.823.091 11.116.317 13.064c.349 3.004 1.48 5.281 3.642 7.327a12.34 12.34 0 0 0 5.812 3.066c1.214.27 4.024.186 5.277-.158 4.881-1.34 8.228-5.258 8.741-10.234.14-1.353.002-3.05-.348-4.301-1.092-3.9-4.4-7.146-8.415-8.26C14.246.287 13.804.25 12 .25m.144 1.862c.84.01 1.674.1 2.28.27 4.73 1.33 7.737 5.425 7.454 10.153-.157 2.635-1.199 4.806-3.174 6.608-.954.872-1.817 1.39-3.105 1.868-.907.337-3.705.83-6.123.17-2.418-.658-4.457-2.47-4.457-2.47-1.9-1.91-2.813-4.144-2.815-6.892C2.2 7.375 5.354 3.45 9.829 2.333c.63-.157 1.476-.23 2.315-.22m4.269 2.644-4.128.02c-4.648.019-4.695.023-5.532.434-.666.328-1.326.968-1.608 1.562-.342.72-.366.993-.366 4.24 0 1.905.022 2.97.062 3.046.06.111.151.115 2.535.115 2.268 0 2.484.01 2.6.105.123.102.125.15.14 2.42.018 2.565 0 2.46.413 2.561.11.028 1.547.043 3.192.037 2.945-.013 2.997-.016 3.41-.152a3.5 3.5 0 0 0 2.28-2.28c.1-.302.11-.66.127-4.58.022-4.739.022-4.744-.374-5.577-.156-.328-.323-.554-.644-.872-.491-.485-.94-.744-1.63-.943Zm-2.774 2.126c1.405-.002 1.454.021 1.545.112a.5.5 0 0 1 .122.346c0 .216-.086.311-2.258 2.476-2.148 2.142-2.274 2.256-2.582 2.349-.263.076-.616.094-1.825.091-.825-.002-1.56-.029-1.634-.059a.4.4 0 0 1-.195-.21c-.091-.24-.074-3.038.023-3.444.154-.659.585-1.178 1.226-1.478l.337-.158 3.331-.018zm3.346 1.788a.53.53 0 0 1 .53.348c.052.128.066 1.004.052 3.427-.019 3.18-.021 3.261-.148 3.57-.206.502-.501.816-.994 1.056a3.5 3.5 0 0 1-.82.271c-.515.08-3.28.073-3.45-.01a.34.34 0 0 1-.162-.19c-.02-.07-.035-.88-.036-1.798 0-1.542.008-1.69.118-1.915.07-.147.525-.643 1.15-1.259l2.293-2.257c1.152-1.137 1.278-1.242 1.467-1.242M5.948 15.618c-.638 0-.92.02-.966.057-.192.16-.039 1.106.283 1.745.26.515.974 1.22 1.494 1.474.757.37 1.499.474 1.729.245.113-.114.12-.2.12-1.696 0-1.525-.005-1.579-.126-1.69-.117-.104-.252-.115-1.771-.13q-.444-.006-.763-.005"/></svg>